<svg width="50" height="50" xmlns="http://www.w3.org/2000/svg" xml:space="preserve" version="1.1">
 <defs>
  <linearGradient y2="0.5" x2="2.9875" y1="0.5" x1="-3.96875" id="SVGID_1_">
   <stop stop-color="#3479F3" offset="0"/>
   <stop stop-color="#7FE4FF" offset="1"/>
  </linearGradient>
  <linearGradient y2="0.49687" x2="1.00313" y1="0.49687" x1="-5.95312" id="SVGID_2_">
   <stop stop-color="#3479F3" offset="0"/>
   <stop stop-color="#7FE4FF" offset="1"/>
  </linearGradient>
  <linearGradient y2="0.49687" x2="2.9875" y1="0.49687" x1="-3.96875" id="SVGID_3_">
   <stop stop-color="#3479F3" offset="0"/>
   <stop stop-color="#7FE4FF" offset="1"/>
  </linearGradient>
  <linearGradient y2="0.49687" x2="4.97187" y1="0.49687" x1="-1.98437" id="SVGID_4_">
   <stop stop-color="#3479F3" offset="0"/>
   <stop stop-color="#7FE4FF" offset="1"/>
  </linearGradient>
  <linearGradient y2="0.49687" x2="6.95625" y1="0.49687" x1="0" id="SVGID_5_">
   <stop stop-color="#3479F3" offset="0"/>
   <stop stop-color="#7FE4FF" offset="1"/>
  </linearGradient>
  <linearGradient y2="0.5" x2="6.95625" y1="0.5" x1="0" id="SVGID_6_">
   <stop stop-color="#3479F3" offset="0"/>
   <stop stop-color="#7FE4FF" offset="1"/>
  </linearGradient>
 </defs>
 <g>
  <title>Layer 1</title>
  <g stroke="null" id="svg_41">
   <circle stroke="null" id="svg_24" fill="#8C99CD" r="3.2" cy="18.65" cx="31.35" class="st1"/>
   <circle stroke="null" id="svg_25" fill="#8C99CD" r="3.2" cy="5.95" cx="44.05" class="st1"/>
   <circle stroke="null" id="svg_26" fill="#8C99CD" r="3.2" cy="5.95" cx="31.35" class="st1"/>
   <circle stroke="null" id="svg_27" fill="#8C99CD" r="3.2" cy="5.95" cx="18.65" class="st1"/>
   <circle stroke="null" id="svg_28" fill="#8C99CD" r="3.2" cy="5.95" cx="5.95" class="st1"/>
   <circle stroke="null" id="svg_29" fill="#8C99CD" r="3.2" cy="18.65" cx="5.95" class="st1"/>
   <circle stroke="null" id="svg_30" fill="url(#SVGID_1_)" r="3.2" cy="18.65" cx="31.35" class="st2"/>
   <circle stroke="null" id="svg_31" fill="url(#SVGID_2_)" r="3.2" cy="5.95" cx="44.05" class="st3"/>
   <circle stroke="null" id="svg_32" fill="url(#SVGID_3_)" r="3.2" cy="5.95" cx="31.35" class="st4"/>
   <circle stroke="null" id="svg_33" fill="url(#SVGID_4_)" r="3.2" cy="5.95" cx="18.65" class="st5"/>
   <circle stroke="null" id="svg_34" fill="url(#SVGID_5_)" r="3.2" cy="5.95" cx="5.95" class="st6"/>
   <circle stroke="null" id="svg_35" fill="url(#SVGID_6_)" r="3.2" cy="18.65" cx="5.95" class="st7"/>
   <path stroke="null" id="svg_36" fill="#282D33" d="m5.95,28.15c-1.8,0 -3.2,1.4 -3.2,3.2c0,0 0,0 0,0l0,12.7c0,1.8 1.4,3.2 3.2,3.2s3.2,-1.4 3.2,-3.2l0,-12.7c0,-1.7 -1.5,-3.2 -3.2,-3.2l0,0z" class="st0"/>
   <path stroke="null" id="svg_37" fill="#282D33" d="m31.35,28.15c-1.8,0 -3.2,1.4 -3.2,3.2l0,0l0,12.7c0,1.8 1.4,3.2 3.2,3.2s3.2,-1.4 3.2,-3.2l0,-12.7c0,-1.7 -1.4,-3.2 -3.2,-3.2l0,0z" class="st0"/>
   <path stroke="null" id="svg_38" fill="#282D33" d="m18.65,15.45c-1.8,0 -3.2,1.4 -3.2,3.2l0,0l0,25.4c0,1.8 1.4,3.2 3.2,3.2s3.2,-1.4 3.2,-3.2l0,-25.4c0,-1.8 -1.4,-3.2 -3.2,-3.2z" class="st0"/>
   <path stroke="null" id="svg_39" fill="#282D33" d="m44.05,15.45c-1.8,0 -3.2,1.4 -3.2,3.2l0,0l0,25.4c0,1.8 1.4,3.2 3.2,3.2s3.2,-1.4 3.2,-3.2l0,-25.4c0,-1.8 -1.4,-3.2 -3.2,-3.2z" class="st0"/>
  </g>
 </g>
</svg>